{
    "asset" : {
        "generator" : "Khronos glTF Blender I/O v3.3.32",
        "version" : "2.0"
    },
    "extensionsUsed" : [
        "KHR_materials_specular",
        "KHR_materials_ior"
    ],
    "scene" : 0,
    "scenes" : [
        {
            "name" : "Scene",
            "nodes" : [
                9
            ]
        }
    ],
    "nodes" : [
        {
            "name" : "6fromL",
            "rotation" : [
                5.820766091346741e-11,
                0,
                0,
                1
            ],
            "translation" : [
                0,
                0.04750807583332062,
                -2.3283064365386963e-10
            ]
        },
        {
            "children" : [
                0
            ],
            "name" : "5fromL",
            "rotation" : [
                -5.820766091346741e-11,
                0,
                0,
                1
            ],
            "translation" : [
                0,
                0.047508079558610916,
                -3.2014213502407074e-10
            ]
        },
        {
            "children" : [
                1
            ],
            "name" : "4fromL",
            "rotation" : [
                5.820766091346741e-11,
                0,
                0,
                1
            ],
            "translation" : [
                0,
                0.047508079558610916,
                -3.8562575355172157e-10
            ]
        },
        {
            "children" : [
                2
            ],
            "name" : "3fromL",
            "rotation" : [
                0.0007510383147746325,
                0,
                0,
                0.9999998211860657
            ],
            "translation" : [
                0,
                0.016247332096099854,
                0
            ]
        },
        {
            "children" : [
                3
            ],
            "name" : "2fromL",
            "translation" : [
                0,
                0.009052850306034088,
                0
            ]
        },
        {
            "children" : [
                4
            ],
            "name" : "1fromL",
            "rotation" : [
                -0.6900884509086609,
                0,
                0,
                0.7237250208854675
            ],
            "translation" : [
                1.6543612251060553e-24,
                0.008322173729538918,
                2.9103830456733704e-11
            ]
        },
        {
            "children" : [
                5
            ],
            "name" : "spine_anchor",
            "rotation" : [
                -0.02378462441265583,
                0,
                0,
                0.999717116355896
            ]
        },
        {
            "name" : "page_controller",
            "rotation" : [
                -0.707090437412262,
                0.004799822811037302,
                0.004799823276698589,
                0.7070904970169067
            ],
            "scale" : [
                1,
                0.9999998807907104,
                1
            ],
            "translation" : [
                0.0004721507430076599,
                0.008597999811172485,
                -0.2157280147075653
            ]
        },
        {
            "mesh" : 0,
            "name" : "page",
            "skin" : 0
        },
        {
            "children" : [
                8,
                6,
                7
            ],
            "name" : "page_armature"
        }
    ],
    "animations" : [
        {
            "channels" : [
                {
                    "sampler" : 0,
                    "target" : {
                        "node" : 6,
                        "path" : "translation"
                    }
                },
                {
                    "sampler" : 1,
                    "target" : {
                        "node" : 6,
                        "path" : "rotation"
                    }
                },
                {
                    "sampler" : 2,
                    "target" : {
                        "node" : 6,
                        "path" : "scale"
                    }
                },
                {
                    "sampler" : 3,
                    "target" : {
                        "node" : 5,
                        "path" : "translation"
                    }
                },
                {
                    "sampler" : 4,
                    "target" : {
                        "node" : 5,
                        "path" : "rotation"
                    }
                },
                {
                    "sampler" : 5,
                    "target" : {
                        "node" : 5,
                        "path" : "scale"
                    }
                },
                {
                    "sampler" : 6,
                    "target" : {
                        "node" : 4,
                        "path" : "translation"
                    }
                },
                {
                    "sampler" : 7,
                    "target" : {
                        "node" : 4,
                        "path" : "rotation"
                    }
                },
                {
                    "sampler" : 8,
                    "target" : {
                        "node" : 4,
                        "path" : "scale"
                    }
                },
                {
                    "sampler" : 9,
                    "target" : {
                        "node" : 3,
                        "path" : "translation"
                    }
                },
                {
                    "sampler" : 10,
                    "target" : {
                        "node" : 3,
                        "path" : "rotation"
                    }
                },
                {
                    "sampler" : 11,
                    "target" : {
                        "node" : 3,
                        "path" : "scale"
                    }
                },
                {
                    "sampler" : 12,
                    "target" : {
                        "node" : 2,
                        "path" : "translation"
                    }
                },
                {
                    "sampler" : 13,
                    "target" : {
                        "node" : 2,
                        "path" : "rotation"
                    }
                },
                {
                    "sampler" : 14,
                    "target" : {
                        "node" : 2,
                        "path" : "scale"
                    }
                },
                {
                    "sampler" : 15,
                    "target" : {
                        "node" : 1,
                        "path" : "translation"
                    }
                },
                {
                    "sampler" : 16,
                    "target" : {
                        "node" : 1,
                        "path" : "rotation"
                    }
                },
                {
                    "sampler" : 17,
                    "target" : {
                        "node" : 1,
                        "path" : "scale"
                    }
                },
                {
                    "sampler" : 18,
                    "target" : {
                        "node" : 0,
                        "path" : "translation"
                    }
                },
                {
                    "sampler" : 19,
                    "target" : {
                        "node" : 0,
                        "path" : "rotation"
                    }
                },
                {
                    "sampler" : 20,
                    "target" : {
                        "node" : 0,
                        "path" : "scale"
                    }
                },
                {
                    "sampler" : 21,
                    "target" : {
                        "node" : 7,
                        "path" : "translation"
                    }
                },
                {
                    "sampler" : 22,
                    "target" : {
                        "node" : 7,
                        "path" : "rotation"
                    }
                },
                {
                    "sampler" : 23,
                    "target" : {
                        "node" : 7,
                        "path" : "scale"
                    }
                }
            ],
            "name" : "page_armatureAction.002",
            "samplers" : [
                {
                    "input" : 7,
                    "interpolation" : "LINEAR",
                    "output" : 8
                },
                {
                    "input" : 7,
                    "interpolation" : "LINEAR",
                    "output" : 9
                },
                {
                    "input" : 7,
                    "interpolation" : "LINEAR",
                    "output" : 10
                },
                {
                    "input" : 7,
                    "interpolation" : "LINEAR",
                    "output" : 11
                },
                {
                    "input" : 7,
                    "interpolation" : "LINEAR",
                    "output" : 12
                },
                {
                    "input" : 7,
                    "interpolation" : "LINEAR",
                    "output" : 13
                },
                {
                    "input" : 7,
                    "interpolation" : "LINEAR",
                    "output" : 14
                },
                {
                    "input" : 7,
                    "interpolation" : "LINEAR",
                    "output" : 15
                },
                {
                    "input" : 7,
                    "interpolation" : "LINEAR",
                    "output" : 16
                },
                {
                    "input" : 7,
                    "interpolation" : "LINEAR",
                    "output" : 17
                },
                {
                    "input" : 7,
                    "interpolation" : "LINEAR",
                    "output" : 18
                },
                {
                    "input" : 7,
                    "interpolation" : "LINEAR",
                    "output" : 19
                },
                {
                    "input" : 7,
                    "interpolation" : "LINEAR",
                    "output" : 20
                },
                {
                    "input" : 7,
                    "interpolation" : "LINEAR",
                    "output" : 21
                },
                {
                    "input" : 7,
                    "interpolation" : "LINEAR",
                    "output" : 22
                },
                {
                    "input" : 7,
                    "interpolation" : "LINEAR",
                    "output" : 23
                },
                {
                    "input" : 7,
                    "interpolation" : "LINEAR",
                    "output" : 24
                },
                {
                    "input" : 7,
                    "interpolation" : "LINEAR",
                    "output" : 25
                },
                {
                    "input" : 7,
                    "interpolation" : "LINEAR",
                    "output" : 26
                },
                {
                    "input" : 7,
                    "interpolation" : "LINEAR",
                    "output" : 27
                },
                {
                    "input" : 7,
                    "interpolation" : "LINEAR",
                    "output" : 28
                },
                {
                    "input" : 7,
                    "interpolation" : "LINEAR",
                    "output" : 29
                },
                {
                    "input" : 7,
                    "interpolation" : "LINEAR",
                    "output" : 30
                },
                {
                    "input" : 7,
                    "interpolation" : "LINEAR",
                    "output" : 31
                }
            ]
        }
    ],
    "materials" : [
        {
            "doubleSided" : true,
            "extensions" : {
                "KHR_materials_specular" : {
                    "specularColorFactor" : [
                        0.1401256849266605,
                        0.1401256849266605,
                        0.1401256849266605
                    ]
                },
                "KHR_materials_ior" : {
                    "ior" : 1.4500000476837158
                }
            },
            "name" : "book_baked",
            "normalTexture" : {
                "index" : 0
            },
            "pbrMetallicRoughness" : {
                "baseColorTexture" : {
                    "index" : 1
                },
                "metallicFactor" : 0,
                "metallicRoughnessTexture" : {
                    "index" : 2
                }
            }
        }
    ],
    "meshes" : [
        {
            "name" : "Cube.003",
            "primitives" : [
                {
                    "attributes" : {
                        "POSITION" : 0,
                        "NORMAL" : 1,
                        "TEXCOORD_0" : 2,
                        "JOINTS_0" : 3,
                        "WEIGHTS_0" : 4
                    },
                    "indices" : 5,
                    "material" : 0
                }
            ]
        }
    ],
    "textures" : [
        {
            "sampler" : 0,
            "source" : 0
        },
        {
            "sampler" : 0,
            "source" : 1
        },
        {
            "sampler" : 0,
            "source" : 2
        }
    ],
    "images" : [
        {
            "mimeType" : "image/png",
            "name" : "Book_normal.png",
            "uri" : "Book_normal_png.png"
        },
        {
            "mimeType" : "image/png",
            "name" : "Book_diffuse.png",
            "uri" : "Book_diffuse_png.png"
        },
        {
            "mimeType" : "image/png",
            "name" : "Book_roughness.png",
            "uri" : "Book_roughness_png.png"
        }
    ],
    "skins" : [
        {
            "inverseBindMatrices" : 6,
            "joints" : [
                6,
                5,
                4,
                3,
                2,
                1,
                0,
                7
            ],
            "name" : "page_armature"
        }
    ],
    "accessors" : [
        {
            "bufferView" : 0,
            "componentType" : 5126,
            "count" : 16,
            "max" : [
                0.14163392782211304,
                0.008598200976848602,
                1.4551915228366852e-10
            ],
            "min" : [
                -0.14163392782211304,
                0.008312758058309555,
                -0.2157280296087265
            ],
            "type" : "VEC3"
        },
        {
            "bufferView" : 1,
            "componentType" : 5126,
            "count" : 16,
            "type" : "VEC3"
        },
        {
            "bufferView" : 2,
            "componentType" : 5126,
            "count" : 16,
            "type" : "VEC2"
        },
        {
            "bufferView" : 3,
            "componentType" : 5121,
            "count" : 16,
            "type" : "VEC4"
        },
        {
            "bufferView" : 4,
            "componentType" : 5126,
            "count" : 16,
            "type" : "VEC4"
        },
        {
            "bufferView" : 5,
            "componentType" : 5123,
            "count" : 36,
            "type" : "SCALAR"
        },
        {
            "bufferView" : 6,
            "componentType" : 5126,
            "count" : 8,
            "type" : "MAT4"
        },
        {
            "bufferView" : 7,
            "componentType" : 5126,
            "count" : 31,
            "max" : [
                1.25
            ],
            "min" : [
                0
            ],
            "type" : "SCALAR"
        },
        {
            "bufferView" : 8,
            "componentType" : 5126,
            "count" : 31,
            "type" : "VEC3"
        },
        {
            "bufferView" : 9,
            "componentType" : 5126,
            "count" : 31,
            "type" : "VEC4"
        },
        {
            "bufferView" : 10,
            "componentType" : 5126,
            "count" : 31,
            "type" : "VEC3"
        },
        {
            "bufferView" : 11,
            "componentType" : 5126,
            "count" : 31,
            "type" : "VEC3"
        },
        {
            "bufferView" : 12,
            "componentType" : 5126,
            "count" : 31,
            "type" : "VEC4"
        },
        {
            "bufferView" : 13,
            "componentType" : 5126,
            "count" : 31,
            "type" : "VEC3"
        },
        {
            "bufferView" : 14,
            "componentType" : 5126,
            "count" : 31,
            "type" : "VEC3"
        },
        {
            "bufferView" : 15,
            "componentType" : 5126,
            "count" : 31,
            "type" : "VEC4"
        },
        {
            "bufferView" : 16,
            "componentType" : 5126,
            "count" : 31,
            "type" : "VEC3"
        },
        {
            "bufferView" : 17,
            "componentType" : 5126,
            "count" : 31,
            "type" : "VEC3"
        },
        {
            "bufferView" : 18,
            "componentType" : 5126,
            "count" : 31,
            "type" : "VEC4"
        },
        {
            "bufferView" : 19,
            "componentType" : 5126,
            "count" : 31,
            "type" : "VEC3"
        },
        {
            "bufferView" : 20,
            "componentType" : 5126,
            "count" : 31,
            "type" : "VEC3"
        },
        {
            "bufferView" : 21,
            "componentType" : 5126,
            "count" : 31,
            "type" : "VEC4"
        },
        {
            "bufferView" : 22,
            "componentType" : 5126,
            "count" : 31,
            "type" : "VEC3"
        },
        {
            "bufferView" : 23,
            "componentType" : 5126,
            "count" : 31,
            "type" : "VEC3"
        },
        {
            "bufferView" : 24,
            "componentType" : 5126,
            "count" : 31,
            "type" : "VEC4"
        },
        {
            "bufferView" : 25,
            "componentType" : 5126,
            "count" : 31,
            "type" : "VEC3"
        },
        {
            "bufferView" : 26,
            "componentType" : 5126,
            "count" : 31,
            "type" : "VEC3"
        },
        {
            "bufferView" : 27,
            "componentType" : 5126,
            "count" : 31,
            "type" : "VEC4"
        },
        {
            "bufferView" : 28,
            "componentType" : 5126,
            "count" : 31,
            "type" : "VEC3"
        },
        {
            "bufferView" : 29,
            "componentType" : 5126,
            "count" : 31,
            "type" : "VEC3"
        },
        {
            "bufferView" : 30,
            "componentType" : 5126,
            "count" : 31,
            "type" : "VEC4"
        },
        {
            "bufferView" : 31,
            "componentType" : 5126,
            "count" : 31,
            "type" : "VEC3"
        }
    ],
    "bufferViews" : [
        {
            "buffer" : 0,
            "byteLength" : 192,
            "byteOffset" : 0,
            "target" : 34962
        },
        {
            "buffer" : 0,
            "byteLength" : 192,
            "byteOffset" : 192,
            "target" : 34962
        },
        {
            "buffer" : 0,
            "byteLength" : 128,
            "byteOffset" : 384,
            "target" : 34962
        },
        {
            "buffer" : 0,
            "byteLength" : 64,
            "byteOffset" : 512,
            "target" : 34962
        },
        {
            "buffer" : 0,
            "byteLength" : 256,
            "byteOffset" : 576,
            "target" : 34962
        },
        {
            "buffer" : 0,
            "byteLength" : 72,
            "byteOffset" : 832,
            "target" : 34963
        },
        {
            "buffer" : 0,
            "byteLength" : 512,
            "byteOffset" : 904
        },
        {
            "buffer" : 0,
            "byteLength" : 124,
            "byteOffset" : 1416
        },
        {
            "buffer" : 0,
            "byteLength" : 372,
            "byteOffset" : 1540
        },
        {
            "buffer" : 0,
            "byteLength" : 496,
            "byteOffset" : 1912
        },
        {
            "buffer" : 0,
            "byteLength" : 372,
            "byteOffset" : 2408
        },
        {
            "buffer" : 0,
            "byteLength" : 372,
            "byteOffset" : 2780
        },
        {
            "buffer" : 0,
            "byteLength" : 496,
            "byteOffset" : 3152
        },
        {
            "buffer" : 0,
            "byteLength" : 372,
            "byteOffset" : 3648
        },
        {
            "buffer" : 0,
            "byteLength" : 372,
            "byteOffset" : 4020
        },
        {
            "buffer" : 0,
            "byteLength" : 496,
            "byteOffset" : 4392
        },
        {
            "buffer" : 0,
            "byteLength" : 372,
            "byteOffset" : 4888
        },
        {
            "buffer" : 0,
            "byteLength" : 372,
            "byteOffset" : 5260
        },
        {
            "buffer" : 0,
            "byteLength" : 496,
            "byteOffset" : 5632
        },
        {
            "buffer" : 0,
            "byteLength" : 372,
            "byteOffset" : 6128
        },
        {
            "buffer" : 0,
            "byteLength" : 372,
            "byteOffset" : 6500
        },
        {
            "buffer" : 0,
            "byteLength" : 496,
            "byteOffset" : 6872
        },
        {
            "buffer" : 0,
            "byteLength" : 372,
            "byteOffset" : 7368
        },
        {
            "buffer" : 0,
            "byteLength" : 372,
            "byteOffset" : 7740
        },
        {
            "buffer" : 0,
            "byteLength" : 496,
            "byteOffset" : 8112
        },
        {
            "buffer" : 0,
            "byteLength" : 372,
            "byteOffset" : 8608
        },
        {
            "buffer" : 0,
            "byteLength" : 372,
            "byteOffset" : 8980
        },
        {
            "buffer" : 0,
            "byteLength" : 496,
            "byteOffset" : 9352
        },
        {
            "buffer" : 0,
            "byteLength" : 372,
            "byteOffset" : 9848
        },
        {
            "buffer" : 0,
            "byteLength" : 372,
            "byteOffset" : 10220
        },
        {
            "buffer" : 0,
            "byteLength" : 496,
            "byteOffset" : 10592
        },
        {
            "buffer" : 0,
            "byteLength" : 372,
            "byteOffset" : 11088
        }
    ],
    "samplers" : [
        {
            "magFilter" : 9729,
            "minFilter" : 9987
        }
    ],
    "buffers" : [
        {
            "byteLength" : 11460,
            "uri" : "book_page.bin"
        }
    ]
}
