{
    "asset" : {
        "generator" : "Khronos glTF Blender I/O v3.3.32",
        "version" : "2.0"
    },
    "scene" : 0,
    "scenes" : [
        {
            "name" : "Scene",
            "nodes" : [
                0
            ]
        }
    ],
    "nodes" : [
        {
            "mesh" : 0,
            "name" : "quill",
            "rotation" : [
                -0.19200418889522552,
                -0.03839036822319031,
                -0.026985449716448784,
                0.980271577835083
            ],
            "translation" : [
                -0.22229738533496857,
                0.12138022482395172,
                -0.31764742732048035
            ]
        }
    ],
    "materials" : [
        {
            "doubleSided" : true,
            "name" : "quill",
            "pbrMetallicRoughness" : {
                "baseColorTexture" : {
                    "index" : 0
                },
                "metallicFactor" : 0,
                "roughnessFactor" : 0.5
            }
        }
    ],
    "meshes" : [
        {
            "name" : "Cylinder.001",
            "primitives" : [
                {
                    "attributes" : {
                        "POSITION" : 0,
                        "NORMAL" : 1,
                        "TEXCOORD_0" : 2
                    },
                    "indices" : 3,
                    "material" : 0
                }
            ]
        }
    ],
    "textures" : [
        {
            "sampler" : 0,
            "source" : 0
        }
    ],
    "images" : [
        {
            "mimeType" : "image/png",
            "name" : "quill_diffuse",
            "uri" : "quill_diffuse.png"
        }
    ],
    "accessors" : [
        {
            "bufferView" : 0,
            "componentType" : 5126,
            "count" : 120,
            "max" : [
                0.0021433276124298573,
                0.1335805058479309,
                0.008599692024290562
            ],
            "min" : [
                -0.002143342047929764,
                -0.10713735222816467,
                -0.034809887409210205
            ],
            "type" : "VEC3"
        },
        {
            "bufferView" : 1,
            "componentType" : 5126,
            "count" : 120,
            "type" : "VEC3"
        },
        {
            "bufferView" : 2,
            "componentType" : 5126,
            "count" : 120,
            "type" : "VEC2"
        },
        {
            "bufferView" : 3,
            "componentType" : 5123,
            "count" : 168,
            "type" : "SCALAR"
        }
    ],
    "bufferViews" : [
        {
            "buffer" : 0,
            "byteLength" : 1440,
            "byteOffset" : 0,
            "target" : 34962
        },
        {
            "buffer" : 0,
            "byteLength" : 1440,
            "byteOffset" : 1440,
            "target" : 34962
        },
        {
            "buffer" : 0,
            "byteLength" : 960,
            "byteOffset" : 2880,
            "target" : 34962
        },
        {
            "buffer" : 0,
            "byteLength" : 336,
            "byteOffset" : 3840,
            "target" : 34963
        }
    ],
    "samplers" : [
        {
            "magFilter" : 9729,
            "minFilter" : 9987
        }
    ],
    "buffers" : [
        {
            "byteLength" : 4176,
            "uri" : "quill.bin"
        }
    ]
}
