{
    "asset" : {
        "generator" : "Khronos glTF Blender I/O v3.3.32",
        "version" : "2.0"
    },
    "scene" : 0,
    "scenes" : [
        {
            "name" : "Scene",
            "nodes" : [
                8
            ]
        }
    ],
    "nodes" : [
        {
            "name" : "6fromL",
            "rotation" : [
                5.820766091346741e-11,
                0,
                0,
                1
            ],
            "translation" : [
                0,
                0.04750807583332062,
                -2.3283064365386963e-10
            ]
        },
        {
            "children" : [
                0
            ],
            "name" : "5fromL",
            "rotation" : [
                -5.820766091346741e-11,
                0,
                0,
                1
            ],
            "translation" : [
                0,
                0.047508079558610916,
                -3.2014213502407074e-10
            ]
        },
        {
            "children" : [
                1
            ],
            "name" : "4fromL",
            "rotation" : [
                5.820766091346741e-11,
                0,
                0,
                1
            ],
            "translation" : [
                0,
                0.047508079558610916,
                -3.8562575355172157e-10
            ]
        },
        {
            "children" : [
                2
            ],
            "name" : "3fromL",
            "rotation" : [
                0.0007510383147746325,
                0,
                0,
                0.9999998211860657
            ],
            "translation" : [
                0,
                0.016247332096099854,
                0
            ]
        },
        {
            "children" : [
                3
            ],
            "name" : "2fromL",
            "translation" : [
                0,
                0.009052850306034088,
                0
            ]
        },
        {
            "children" : [
                4
            ],
            "name" : "1fromL",
            "rotation" : [
                -0.6900884509086609,
                0,
                0,
                0.7237250208854675
            ],
            "translation" : [
                1.6543612251060553e-24,
                0.008322173729538918,
                2.9103830456733704e-11
            ]
        },
        {
            "children" : [
                5
            ],
            "name" : "spine_anchor",
            "rotation" : [
                -0.02378462441265583,
                0,
                0,
                0.999717116355896
            ]
        },
        {
            "name" : "page_controller",
            "rotation" : [
                -0.707090437412262,
                0.004799822811037302,
                0.004799823276698589,
                0.7070904970169067
            ],
            "scale" : [
                1,
                0.9999998807907104,
                1
            ],
            "translation" : [
                0.0004721507430076599,
                0.008597999811172485,
                -0.2157280147075653
            ]
        },
        {
            "children" : [
                6,
                7
            ],
            "name" : "page_armature"
        }
    ],
    "animations" : [
        {
            "channels" : [
                {
                    "sampler" : 0,
                    "target" : {
                        "node" : 6,
                        "path" : "translation"
                    }
                },
                {
                    "sampler" : 1,
                    "target" : {
                        "node" : 6,
                        "path" : "rotation"
                    }
                },
                {
                    "sampler" : 2,
                    "target" : {
                        "node" : 6,
                        "path" : "scale"
                    }
                },
                {
                    "sampler" : 3,
                    "target" : {
                        "node" : 5,
                        "path" : "translation"
                    }
                },
                {
                    "sampler" : 4,
                    "target" : {
                        "node" : 5,
                        "path" : "rotation"
                    }
                },
                {
                    "sampler" : 5,
                    "target" : {
                        "node" : 5,
                        "path" : "scale"
                    }
                },
                {
                    "sampler" : 6,
                    "target" : {
                        "node" : 4,
                        "path" : "translation"
                    }
                },
                {
                    "sampler" : 7,
                    "target" : {
                        "node" : 4,
                        "path" : "rotation"
                    }
                },
                {
                    "sampler" : 8,
                    "target" : {
                        "node" : 4,
                        "path" : "scale"
                    }
                },
                {
                    "sampler" : 9,
                    "target" : {
                        "node" : 3,
                        "path" : "translation"
                    }
                },
                {
                    "sampler" : 10,
                    "target" : {
                        "node" : 3,
                        "path" : "rotation"
                    }
                },
                {
                    "sampler" : 11,
                    "target" : {
                        "node" : 3,
                        "path" : "scale"
                    }
                },
                {
                    "sampler" : 12,
                    "target" : {
                        "node" : 2,
                        "path" : "translation"
                    }
                },
                {
                    "sampler" : 13,
                    "target" : {
                        "node" : 2,
                        "path" : "rotation"
                    }
                },
                {
                    "sampler" : 14,
                    "target" : {
                        "node" : 2,
                        "path" : "scale"
                    }
                },
                {
                    "sampler" : 15,
                    "target" : {
                        "node" : 1,
                        "path" : "translation"
                    }
                },
                {
                    "sampler" : 16,
                    "target" : {
                        "node" : 1,
                        "path" : "rotation"
                    }
                },
                {
                    "sampler" : 17,
                    "target" : {
                        "node" : 1,
                        "path" : "scale"
                    }
                },
                {
                    "sampler" : 18,
                    "target" : {
                        "node" : 0,
                        "path" : "translation"
                    }
                },
                {
                    "sampler" : 19,
                    "target" : {
                        "node" : 0,
                        "path" : "rotation"
                    }
                },
                {
                    "sampler" : 20,
                    "target" : {
                        "node" : 0,
                        "path" : "scale"
                    }
                },
                {
                    "sampler" : 21,
                    "target" : {
                        "node" : 7,
                        "path" : "translation"
                    }
                },
                {
                    "sampler" : 22,
                    "target" : {
                        "node" : 7,
                        "path" : "rotation"
                    }
                },
                {
                    "sampler" : 23,
                    "target" : {
                        "node" : 7,
                        "path" : "scale"
                    }
                }
            ],
            "name" : "page_armatureAction.002",
            "samplers" : [
                {
                    "input" : 0,
                    "interpolation" : "LINEAR",
                    "output" : 1
                },
                {
                    "input" : 0,
                    "interpolation" : "LINEAR",
                    "output" : 2
                },
                {
                    "input" : 0,
                    "interpolation" : "LINEAR",
                    "output" : 3
                },
                {
                    "input" : 0,
                    "interpolation" : "LINEAR",
                    "output" : 4
                },
                {
                    "input" : 0,
                    "interpolation" : "LINEAR",
                    "output" : 5
                },
                {
                    "input" : 0,
                    "interpolation" : "LINEAR",
                    "output" : 6
                },
                {
                    "input" : 0,
                    "interpolation" : "LINEAR",
                    "output" : 7
                },
                {
                    "input" : 0,
                    "interpolation" : "LINEAR",
                    "output" : 8
                },
                {
                    "input" : 0,
                    "interpolation" : "LINEAR",
                    "output" : 9
                },
                {
                    "input" : 0,
                    "interpolation" : "LINEAR",
                    "output" : 10
                },
                {
                    "input" : 0,
                    "interpolation" : "LINEAR",
                    "output" : 11
                },
                {
                    "input" : 0,
                    "interpolation" : "LINEAR",
                    "output" : 12
                },
                {
                    "input" : 0,
                    "interpolation" : "LINEAR",
                    "output" : 13
                },
                {
                    "input" : 0,
                    "interpolation" : "LINEAR",
                    "output" : 14
                },
                {
                    "input" : 0,
                    "interpolation" : "LINEAR",
                    "output" : 15
                },
                {
                    "input" : 0,
                    "interpolation" : "LINEAR",
                    "output" : 16
                },
                {
                    "input" : 0,
                    "interpolation" : "LINEAR",
                    "output" : 17
                },
                {
                    "input" : 0,
                    "interpolation" : "LINEAR",
                    "output" : 18
                },
                {
                    "input" : 0,
                    "interpolation" : "LINEAR",
                    "output" : 19
                },
                {
                    "input" : 0,
                    "interpolation" : "LINEAR",
                    "output" : 20
                },
                {
                    "input" : 0,
                    "interpolation" : "LINEAR",
                    "output" : 21
                },
                {
                    "input" : 0,
                    "interpolation" : "LINEAR",
                    "output" : 22
                },
                {
                    "input" : 0,
                    "interpolation" : "LINEAR",
                    "output" : 23
                },
                {
                    "input" : 0,
                    "interpolation" : "LINEAR",
                    "output" : 24
                }
            ]
        }
    ],
    "skins" : [
        {
            "inverseBindMatrices" : 25,
            "joints" : [
                6,
                5,
                4,
                3,
                2,
                1,
                0,
                7
            ],
            "name" : "page_armature"
        }
    ],
    "accessors" : [
        {
            "bufferView" : 0,
            "componentType" : 5126,
            "count" : 31,
            "max" : [
                1.25
            ],
            "min" : [
                0
            ],
            "type" : "SCALAR"
        },
        {
            "bufferView" : 1,
            "componentType" : 5126,
            "count" : 31,
            "type" : "VEC3"
        },
        {
            "bufferView" : 2,
            "componentType" : 5126,
            "count" : 31,
            "type" : "VEC4"
        },
        {
            "bufferView" : 3,
            "componentType" : 5126,
            "count" : 31,
            "type" : "VEC3"
        },
        {
            "bufferView" : 4,
            "componentType" : 5126,
            "count" : 31,
            "type" : "VEC3"
        },
        {
            "bufferView" : 5,
            "componentType" : 5126,
            "count" : 31,
            "type" : "VEC4"
        },
        {
            "bufferView" : 6,
            "componentType" : 5126,
            "count" : 31,
            "type" : "VEC3"
        },
        {
            "bufferView" : 7,
            "componentType" : 5126,
            "count" : 31,
            "type" : "VEC3"
        },
        {
            "bufferView" : 8,
            "componentType" : 5126,
            "count" : 31,
            "type" : "VEC4"
        },
        {
            "bufferView" : 9,
            "componentType" : 5126,
            "count" : 31,
            "type" : "VEC3"
        },
        {
            "bufferView" : 10,
            "componentType" : 5126,
            "count" : 31,
            "type" : "VEC3"
        },
        {
            "bufferView" : 11,
            "componentType" : 5126,
            "count" : 31,
            "type" : "VEC4"
        },
        {
            "bufferView" : 12,
            "componentType" : 5126,
            "count" : 31,
            "type" : "VEC3"
        },
        {
            "bufferView" : 13,
            "componentType" : 5126,
            "count" : 31,
            "type" : "VEC3"
        },
        {
            "bufferView" : 14,
            "componentType" : 5126,
            "count" : 31,
            "type" : "VEC4"
        },
        {
            "bufferView" : 15,
            "componentType" : 5126,
            "count" : 31,
            "type" : "VEC3"
        },
        {
            "bufferView" : 16,
            "componentType" : 5126,
            "count" : 31,
            "type" : "VEC3"
        },
        {
            "bufferView" : 17,
            "componentType" : 5126,
            "count" : 31,
            "type" : "VEC4"
        },
        {
            "bufferView" : 18,
            "componentType" : 5126,
            "count" : 31,
            "type" : "VEC3"
        },
        {
            "bufferView" : 19,
            "componentType" : 5126,
            "count" : 31,
            "type" : "VEC3"
        },
        {
            "bufferView" : 20,
            "componentType" : 5126,
            "count" : 31,
            "type" : "VEC4"
        },
        {
            "bufferView" : 21,
            "componentType" : 5126,
            "count" : 31,
            "type" : "VEC3"
        },
        {
            "bufferView" : 22,
            "componentType" : 5126,
            "count" : 31,
            "type" : "VEC3"
        },
        {
            "bufferView" : 23,
            "componentType" : 5126,
            "count" : 31,
            "type" : "VEC4"
        },
        {
            "bufferView" : 24,
            "componentType" : 5126,
            "count" : 31,
            "type" : "VEC3"
        },
        {
            "bufferView" : 25,
            "componentType" : 5126,
            "count" : 8,
            "type" : "MAT4"
        }
    ],
    "bufferViews" : [
        {
            "buffer" : 0,
            "byteLength" : 124,
            "byteOffset" : 0
        },
        {
            "buffer" : 0,
            "byteLength" : 372,
            "byteOffset" : 124
        },
        {
            "buffer" : 0,
            "byteLength" : 496,
            "byteOffset" : 496
        },
        {
            "buffer" : 0,
            "byteLength" : 372,
            "byteOffset" : 992
        },
        {
            "buffer" : 0,
            "byteLength" : 372,
            "byteOffset" : 1364
        },
        {
            "buffer" : 0,
            "byteLength" : 496,
            "byteOffset" : 1736
        },
        {
            "buffer" : 0,
            "byteLength" : 372,
            "byteOffset" : 2232
        },
        {
            "buffer" : 0,
            "byteLength" : 372,
            "byteOffset" : 2604
        },
        {
            "buffer" : 0,
            "byteLength" : 496,
            "byteOffset" : 2976
        },
        {
            "buffer" : 0,
            "byteLength" : 372,
            "byteOffset" : 3472
        },
        {
            "buffer" : 0,
            "byteLength" : 372,
            "byteOffset" : 3844
        },
        {
            "buffer" : 0,
            "byteLength" : 496,
            "byteOffset" : 4216
        },
        {
            "buffer" : 0,
            "byteLength" : 372,
            "byteOffset" : 4712
        },
        {
            "buffer" : 0,
            "byteLength" : 372,
            "byteOffset" : 5084
        },
        {
            "buffer" : 0,
            "byteLength" : 496,
            "byteOffset" : 5456
        },
        {
            "buffer" : 0,
            "byteLength" : 372,
            "byteOffset" : 5952
        },
        {
            "buffer" : 0,
            "byteLength" : 372,
            "byteOffset" : 6324
        },
        {
            "buffer" : 0,
            "byteLength" : 496,
            "byteOffset" : 6696
        },
        {
            "buffer" : 0,
            "byteLength" : 372,
            "byteOffset" : 7192
        },
        {
            "buffer" : 0,
            "byteLength" : 372,
            "byteOffset" : 7564
        },
        {
            "buffer" : 0,
            "byteLength" : 496,
            "byteOffset" : 7936
        },
        {
            "buffer" : 0,
            "byteLength" : 372,
            "byteOffset" : 8432
        },
        {
            "buffer" : 0,
            "byteLength" : 372,
            "byteOffset" : 8804
        },
        {
            "buffer" : 0,
            "byteLength" : 496,
            "byteOffset" : 9176
        },
        {
            "buffer" : 0,
            "byteLength" : 372,
            "byteOffset" : 9672
        },
        {
            "buffer" : 0,
            "byteLength" : 512,
            "byteOffset" : 10044
        }
    ],
    "buffers" : [
        {
            "byteLength" : 10556,
            "uri" : "book_page.bin"
        }
    ]
}
